<svg width="59.000000" height="59.000000" viewBox="0 0 59 59" fill="none" xmlns="http://www.w3.org/2000/svg" xmlns:xlink="http://www.w3.org/1999/xlink">
	<desc>
			Created with Pixso.
	</desc>
	<defs/>
	<path id="Vector" d="M52.73 0L6.26 0C2.8 0 0 2.8 0 6.26L0 52.73C0 56.19 2.8 59 6.26 59L52.73 59C56.19 59 59 56.19 59 52.73L59 6.26C59 2.8 56.19 0 52.73 0ZM25.61 45.73L19.04 45.73L6.81 13.26L19.14 13.26L28.44 38.13L25.61 45.73ZM41.6 45.73L35.03 45.73L22.81 13.26L35.13 13.26L44.43 38.13L41.6 45.73ZM46.04 29.72L39.84 13.26L52.17 13.26L52.17 13.28L46.04 29.72Z" fill="#FFFFFF" fill-opacity="1.000000" fill-rule="nonzero"/>
</svg>
